HIERARCHY
ROOT Hips
{
	OFFSET -0.001795 -0.223333 0.028219
	CHANNELS 6 Xposition Yposition Zposition Zrotation Yrotation Xrotation 
	JOINT LeftUpLeg
	{
		OFFSET 0.069520 -0.091406 -0.006815
		CHANNELS 3 Zrotation Yrotation Xrotation
		JOINT LeftLeg
		{
			OFFSET 0.034277 -0.375199 -0.004496
			CHANNELS 3 Zrotation Yrotation Xrotation
			JOINT LeftFoot
			{
				OFFSET -0.013596 -0.397961 -0.043693
				CHANNELS 3 Zrotation Yrotation Xrotation
				JOINT LeftToe
				{
					OFFSET 0.026358 -0.055791 0.119288
					CHANNELS 3 Zrotation Yrotation Xrotation
					End Site
					{
						OFFSET 0.000000 0.000000 0.000000
					}
				}
			}
		}
	}
	JOINT RightUpLeg
	{
		OFFSET -0.067670 -0.090522 -0.004320
		CHANNELS 3 Zrotation Yrotation Xrotation
		JOINT RightLeg
		{
			OFFSET -0.038290 -0.382569 -0.008850
			CHANNELS 3 Zrotation Yrotation Xrotation
			JOINT RightFoot
			{
				OFFSET 0.015774 -0.398415 -0.042312
				CHANNELS 3 Zrotation Yrotation Xrotation
				JOINT RightToe
				{
					OFFSET -0.025372 -0.048144 0.123348
					CHANNELS 3 Zrotation Yrotation Xrotation
					End Site
					{
						OFFSET 0.000000 0.000000 0.000000
					}
				}
			}
		}
	}
	JOINT Spine
	{
		OFFSET -0.002533 0.108963 -0.026696
		CHANNELS 3 Zrotation Yrotation Xrotation
		JOINT Spine1
		{
			OFFSET 0.005487 0.135180 0.001092
			CHANNELS 3 Zrotation Yrotation Xrotation
			JOINT Spine2
			{
				OFFSET 0.001457 0.052922 0.025425
				CHANNELS 3 Zrotation Yrotation Xrotation
				JOINT Neck
				{
					OFFSET -0.002778 0.213870 -0.042857
					CHANNELS 3 Zrotation Yrotation Xrotation
					JOINT Head
					{
						OFFSET 0.005152 0.064970 0.051349
						CHANNELS 3 Zrotation Yrotation Xrotation
						End Site
						{
							OFFSET 0.000000 0.000000 0.000000
						}
					}
				}
				JOINT LeftShoulder
				{
					OFFSET 0.078845 0.121749 -0.034090
					CHANNELS 3 Zrotation Yrotation Xrotation
					JOINT LeftArm
					{
						OFFSET 0.090977 0.030469 -0.008868
						CHANNELS 3 Zrotation Yrotation Xrotation
						JOINT LeftForeArm
						{
							OFFSET 0.259612 -0.012772 -0.027456
							CHANNELS 3 Zrotation Yrotation Xrotation
							JOINT LeftHand
							{
								OFFSET 0.249234 0.008986 -0.001171
								CHANNELS 3 Zrotation Yrotation Xrotation
								End Site
								{
									OFFSET 0.000000 0.000000 0.000000
								}
							}
						}
					}
				}
				JOINT RightShoulder
				{
					OFFSET -0.081759 0.118833 -0.038615
					CHANNELS 3 Zrotation Yrotation Xrotation
					JOINT RightArm
					{
						OFFSET -0.096012 0.032551 -0.009143
						CHANNELS 3 Zrotation Yrotation Xrotation
						JOINT RightForeArm
						{
							OFFSET -0.253742 -0.013329 -0.021401
							CHANNELS 3 Zrotation Yrotation Xrotation
							JOINT RightHand
							{
								OFFSET -0.255298 0.007772 -0.005559
								CHANNELS 3 Zrotation Yrotation Xrotation
								End Site
								{
									OFFSET 0.000000 0.000000 0.000000
								}
							}
						}
					}
				}
			}
		}
	}
}
MOTION
Frames: 10
Frame Time: 0.050000
0.058782 0.978045 -0.034810 -0.446935 22.726851 2.053532 3.918482 -0.317258 -1.947882 -0.916082 0.092690 -1.899718 -9.310624 -2.913167 19.243653 0.000000 0.000000 0.000000 -8.308990 -0.551497 4.592895 4.752772 -0.790457 -7.442279 -6.578701 -14.438208 20.934193 0.000000 0.000000 0.000000 0.205777 -0.347712 6.707289 -12.523066 4.290331 -17.382596 -2.455326 24.397529 26.816568 23.838213 -7.361487 -25.773731 0.000000 0.000000 0.000000 -13.040202 -30.161794 4.342133 -53.712256 -31.191515 5.549390 27.737554 -24.130092 -8.711513 0.000000 0.000000 0.000000 14.422639 23.553311 19.261064 107.249860 61.297081 73.298129 -62.714157 64.181692 -29.476602 0.000000 0.000000 0.000000 
0.059320 0.978006 -0.035232 -0.443848 22.914792 2.127763 3.736086 -0.303659 -1.830879 -0.690684 0.089285 -2.249154 -9.546205 -3.127739 19.402701 0.000000 0.000000 0.000000 -8.289611 -0.555410 4.599231 4.744931 -0.793602 -7.537430 -6.691384 -14.595381 20.969227 0.000000 0.000000 0.000000 0.100488 -0.330731 6.550933 -12.440202 4.273515 -17.332157 -2.355865 24.339536 26.924338 23.734446 -7.285533 -25.747382 0.000000 0.000000 0.000000 -13.099426 -30.398284 4.412288 -53.254088 -31.384919 5.614239 27.181324 -23.529829 -8.332245 0.000000 0.000000 0.000000 14.213807 23.662954 19.211414 107.851944 61.453582 74.235445 -63.509541 63.470628 -29.626770 0.000000 0.000000 0.000000 
0.059886 0.978049 -0.035623 -0.503515 23.040417 2.240499 3.666938 -0.298638 -1.766889 -0.536148 0.088127 -2.535337 -9.771018 -3.403090 19.459433 0.000000 0.000000 0.000000 -8.299441 -0.558610 4.632600 4.766891 -0.802527 -7.805187 -6.742440 -14.645404 21.197832 0.000000 0.000000 0.000000 0.028606 -0.317962 6.422268 -12.467356 4.280204 -17.297778 -2.297272 24.211780 26.848305 23.723927 -7.272592 -25.767104 0.000000 0.000000 0.000000 -13.013242 -30.662463 4.559549 -52.802062 -31.762812 5.719638 26.811578 -22.343940 -7.836815 0.000000 0.000000 0.000000 14.081409 23.942477 19.286248 108.388883 61.747866 75.192801 -64.382123 62.649858 -29.754348 0.000000 0.000000 0.000000 
0.060512 0.978083 -0.035934 -0.506327 23.107383 2.305034 3.552539 -0.288842 -1.676654 -0.403604 0.089842 -2.897522 -9.951030 -3.528871 19.663541 0.000000 0.000000 0.000000 -8.339314 -0.561442 4.661716 4.749030 -0.803505 -7.914288 -6.795348 -14.718637 21.281094 0.000000 0.000000 0.000000 -0.039267 -0.300891 6.221706 -12.394811 4.272033 -17.194164 -2.339078 24.297606 26.819986 23.764075 -7.357290 -25.578038 0.000000 0.000000 0.000000 -12.942703 -31.095291 4.741580 -52.051532 -32.030053 5.756412 26.381428 -21.378736 -7.416181 0.000000 0.000000 0.000000 13.990594 24.072831 19.337551 109.037557 61.993500 76.246892 -65.564796 61.703517 -29.938055 0.000000 0.000000 0.000000 
0.061202 0.978011 -0.036228 -0.515250 23.157552 2.393739 3.495968 -0.284268 -1.628326 -0.316115 0.090499 -3.109925 -10.103401 -3.792315 19.599332 0.000000 0.000000 0.000000 -8.450578 -0.564116 4.692867 4.770642 -0.809074 -8.067834 -6.843700 -14.782206 21.473340 0.000000 0.000000 0.000000 -0.081616 -0.289428 6.076197 -12.445464 4.282171 -17.184453 -2.364529 24.250992 26.832651 23.738864 -7.367343 -25.507321 0.000000 0.000000 0.000000 -12.703832 -31.376148 4.926949 -51.578468 -32.458463 5.814997 25.921765 -20.335694 -6.963309 0.000000 0.000000 0.000000 13.664802 24.241644 19.236453 109.657601 62.164920 77.267798 -66.449816 60.811709 -30.002071 0.000000 0.000000 0.000000 
0.061913 0.977976 -0.036542 -0.502341 23.240456 2.353076 3.406944 -0.271252 -1.456225 -0.270010 0.093265 -3.362972 -10.267462 -3.950660 19.706975 0.000000 0.000000 0.000000 -8.607159 -0.577578 4.797564 4.732039 -0.806675 -8.083153 -6.860329 -14.796588 21.526624 0.000000 0.000000 0.000000 -0.155984 -0.277698 5.961113 -12.438066 4.301837 -16.979090 -2.511729 24.250659 26.652424 23.886598 -7.470676 -25.506360 0.000000 0.000000 0.000000 -12.662331 -31.708962 5.069197 -51.142054 -32.410892 5.783087 25.739446 -19.825540 -6.771724 0.000000 0.000000 0.000000 13.590671 24.361955 19.275998 110.100450 62.333763 77.993474 -67.255716 60.172185 -30.117821 0.000000 0.000000 0.000000 
0.062659 0.977883 -0.036894 -0.520578 23.266101 2.338698 3.312913 -0.257609 -1.279835 -0.225860 0.095475 -3.578032 -10.250704 -3.952854 19.654491 0.000000 0.000000 0.000000 -8.760094 -0.580810 4.785316 4.788547 -0.812985 -8.105313 -6.853886 -14.774179 21.692096 0.000000 0.000000 0.000000 -0.210250 -0.270296 5.890849 -12.434946 4.291677 -17.074796 -2.425868 24.218571 26.785894 23.883918 -7.432332 -25.604481 0.000000 0.000000 0.000000 -12.959016 -31.869535 5.071467 -51.048637 -32.161694 5.774553 25.609873 -19.733245 -6.700009 0.000000 0.000000 0.000000 13.406208 24.544773 19.258220 110.249394 62.481067 78.381889 -67.804555 59.717483 -30.189000 0.000000 0.000000 0.000000 
0.063405 0.977908 -0.037271 -0.524570 23.206597 2.371345 3.289285 -0.251557 -1.181409 -0.183272 0.097819 -3.784248 -10.242573 -3.886816 19.753510 0.000000 0.000000 0.000000 -8.831990 -0.576065 4.730324 4.738041 -0.805608 -8.049375 -6.693420 -14.517999 21.625015 0.000000 0.000000 0.000000 -0.317720 -0.255657 5.751242 -12.343826 4.279316 -16.978709 -2.506140 24.197767 26.685005 23.870461 -7.464135 -25.518634 0.000000 0.000000 0.000000 -13.090657 -31.918106 5.073580 -51.099261 -31.924737 5.750872 25.691322 -19.639516 -6.697090 0.000000 0.000000 0.000000 13.404082 24.609870 19.282937 110.410246 62.605909 78.693201 -67.861478 59.436665 -30.071840 0.000000 0.000000 0.000000 
0.064147 0.977972 -0.037623 -0.549920 23.080527 2.275706 3.196118 -0.240608 -1.090773 -0.118547 0.096565 -3.791284 -10.150873 -3.762347 19.761542 0.000000 0.000000 0.000000 -8.948672 -0.581548 4.817998 4.794345 -0.808091 -7.972180 -6.543474 -14.296743 21.617706 0.000000 0.000000 0.000000 -0.210452 -0.258620 5.700014 -12.441537 4.310263 -16.921528 -2.491768 24.315459 26.721293 24.162010 -7.594072 -25.735116 0.000000 0.000000 0.000000 -13.084146 -32.006451 5.114277 -51.364725 -31.750290 5.700546 25.532542 -19.662358 -6.657977 0.000000 0.000000 0.000000 13.540583 24.545750 19.332396 110.207665 62.657029 78.469809 -67.508836 59.690912 -29.989624 0.000000 0.000000 0.000000 
0.064878 0.977990 -0.037970 -0.544698 22.988264 2.097882 3.134054 -0.221090 -0.786077 -0.164567 0.100014 -3.889953 -10.050112 -3.695139 19.653967 0.000000 0.000000 0.000000 -9.171096 -0.595358 4.958463 4.838055 -0.809238 -7.863910 -6.119551 -13.624327 21.526283 0.000000 0.000000 0.000000 -0.249841 -0.260498 5.775010 -12.423223 4.309654 -16.937170 -2.592756 24.280088 26.764913 24.360142 -7.734167 -25.813674 0.000000 0.000000 0.000000 -13.065308 -31.927529 5.111129 -51.612270 -31.503819 5.621380 25.599330 -19.878153 -6.733524 0.000000 0.000000 0.000000 13.817383 24.526196 19.458461 109.904229 62.580075 77.886282 -67.088296 60.393947 -30.119264 0.000000 0.000000 0.000000 
